<?xml version="1.0" standalone="no"?>
<svg viewBox="0 0 200 200" xmlns="http://www.w3.org/2000/svg">
  <path fill="#000000" d="M19.2,-39.5C23.6,-27.1,25,-19.6,30,-12.6C35.1,-5.5,43.7,1,49.8,12.1C55.9,23.3,59.5,39,53.7,47.6C47.9,56.2,32.6,57.7,19,59.2C5.3,60.8,-6.7,62.3,-18.5,60.2C-30.3,58,-41.8,52.1,-46.8,42.6C-51.8,33.1,-50.3,20.1,-51.5,7.8C-52.8,-4.6,-56.7,-16.1,-53.4,-24.9C-50.2,-33.6,-39.7,-39.5,-29.5,-49.3C-19.4,-59.1,-9.7,-72.9,-1.1,-71.2C7.4,-69.4,14.8,-52,19.2,-39.5Z" transform="translate(100 100)" />
</svg>
