<?xml version="1.0" encoding="UTF-8"?>
<svg id="Vrstva_1" xmlns="http://www.w3.org/2000/svg" version="1.1" viewBox="0 0 140.35 153.61">
  <!-- Generator: Adobe Illustrator 29.5.0, SVG Export Plug-In . SVG Version: 2.1.0 Build 137)  -->
  <path d="M101.77,20.83c6.7,10.2,10.4,19.3,16.1,27.7s13.4,16.2,18.2,26.7c4.8,10.5,6.7,23.8-.4,29.6-7.2,5.9-23.4,4.4-34.9,12.6-11.5,8.2-18.3,26.1-29,32.9-10.7,6.7-25.2,2.2-38.1-5.2-12.8-7.4-24-17.8-29.2-30.4C-.73,102.13.07,87.23.07,72.43c-.1-14.9-.9-29.8,7.1-37.4,8.1-7.7,25.1-8,38-14.7C58.07,13.73,66.87.83,76.17.03c9.2-.7,18.9,10.6,25.6,20.8Z"/>
</svg>