<?xml version="1.0" standalone="no"?>
<svg viewBox="0 0 200 200" xmlns="http://www.w3.org/2000/svg">
  <path fill="#000000" d="M39,-58.9C47.5,-55.1,49.5,-39.3,46.1,-26.9C42.7,-14.5,33.8,-5.4,32.8,5C31.8,15.5,38.5,27.3,37.2,36.6C35.9,45.8,26.6,52.4,16.5,54.5C6.5,56.6,-4.4,54.2,-19.5,55C-34.6,55.8,-54,59.7,-67.7,53.4C-81.4,47,-89.4,30.5,-82,17.7C-74.6,4.9,-51.9,-4.2,-40.1,-13.5C-28.4,-22.8,-27.6,-32.2,-22.7,-37.8C-17.9,-43.3,-8.9,-44.9,3.1,-49.7C15.2,-54.6,30.4,-62.8,39,-58.9Z" transform="translate(100 100)" />
</svg>
