<?xml version="1.0" encoding="UTF-8"?>
<svg id="Vrstva_1" xmlns="http://www.w3.org/2000/svg" version="1.1" viewBox="0 0 139.57 119.25">
  <!-- Generator: Adobe Illustrator 29.5.0, SVG Export Plug-In . SVG Version: 2.1.0 Build 137)  -->
  <path d="M90.07,20.99c8.2,9.5,15.5,15.7,25.9,23.6,10.4,7.8,23.8,17.3,23.6,26.7-.2,9.3-14.2,18.5-23.8,27.6-9.7,9.2-15.1,18.3-23,20-8,1.8-18.5-3.7-28.3-5-9.8-1.4-18.8,1.4-27.3,0-8.5-1.5-16.5-7.3-23.5-15.1C6.67,90.99.67,81.19.07,70.99c-.7-10.2,3.9-20.8,11.6-27.4,7.7-6.5,18.5-9.1,27.7-18C48.47,16.69,56.07,1.39,64.37.09c8.4-1.3,17.5,11.4,25.7,20.9Z"/>
</svg>