<?xml version="1.0" encoding="UTF-8"?>
<svg id="Vrstva_1" xmlns="http://www.w3.org/2000/svg" version="1.1" viewBox="0 0 141.09 129.85">
  <!-- Generator: Adobe Illustrator 29.5.0, SVG Export Plug-In . SVG Version: 2.1.0 Build 137)  -->
  <path d="M93.68,27.22c8.9,3.8,19.8,5.7,26.9,11.8,7,6.1,10.1,16.4,14.1,29.1,3.9,12.6,8.7,27.6,5.2,39.7-3.6,12.1-15.5,21.4-28.4,22-12.9.6-26.9-7.5-38.2-12.2-11.2-4.7-19.8-6.1-29.3-8.6-9.6-2.6-20.2-6.3-26.1-13.7-5.9-7.4-7.1-18.5-10.7-31.6C3.58,50.72-2.22,35.52.88,23.22,3.98,11.02,15.98,1.62,29.08.22c13.2-1.5,27.3,5.1,37.9,11.2,10.6,6.2,17.7,12,26.7,15.8Z"/>
</svg>