<?xml version="1.0" encoding="UTF-8" standalone="no"?>
<!DOCTYPE svg PUBLIC "-//W3C//DTD SVG 1.1//EN" "http://www.w3.org/Graphics/SVG/1.1/DTD/svg11.dtd">
<svg width="100%" height="100%" viewBox="0 0 150 150" version="1.1" xmlns="http://www.w3.org/2000/svg" xmlns:xlink="http://www.w3.org/1999/xlink" xml:space="preserve" xmlns:serif="http://www.serif.com/" style="fill-rule:evenodd;clip-rule:evenodd;stroke-linecap:round;stroke-linejoin:round;">
    <g id="Artboard2" transform="matrix(1,0,0,1,-200.654655,0)">
        <rect x="200.655" y="0" width="150" height="150" style="fill:none;"/>
        <g transform="matrix(8.28569,0,0,8.28569,176.251226,-24.428285)">
            <path d="M12,12L12,12.01M14.828,9.172C16.379,10.724 16.379,13.276 14.828,14.828M17.657,6.343C19.157,7.843 20,9.879 20,12C20,14.121 19.157,16.157 17.657,17.657M9.168,14.828C7.617,13.276 7.617,10.724 9.168,9.172M6.337,17.657C4.837,16.157 3.994,14.121 3.994,12C3.994,9.879 4.837,7.843 6.337,6.343" style="fill:none;fill-rule:nonzero;stroke:black;stroke-width:2px;"/>
        </g>
    </g>
</svg>
