<?xml version="1.0" encoding="UTF-8"?>
<svg id="Layer_1" data-name="Layer 1" xmlns="http://www.w3.org/2000/svg" viewBox="0 0 1600 900">
  <path d="M1600,113c-69.79,99.36-190.36,81.24-223,169-20.5,55.11,16.46,90.71-12,121-34.44,36.65-121.68,19.79-180-11-82.46-43.54-77.01-99.06-132-111-73.86-16.04-113.92,77.53-217,105-116.2,30.97-172.82-95.94-262-65-84.61,29.35-67.43,141.38-140,162-109.03,30.98-220.06-201.39-340-169-63.84,17.24-76.46,94.99-105,89-50.11-10.51-95.59-267.99-11-426,241.09-450.36,1620.73-245.8,1662,0,5.5,32.77-8.59,91.28-40,136Z"/>
</svg>