<?xml version="1.0" encoding="UTF-8"?>
<svg id="Layer_1" data-name="Layer 1" xmlns="http://www.w3.org/2000/svg" viewBox="0 0 1968.59 1085.97">
  <path d="M1968.33,496.74c-105.25,30.7-219.35,78.79-227.93,151.23-8.27,69.76,86.46,118.78,66.31,160-20.5,41.93-147.82,51.09-237.25-3-100.01-60.49-78.4-155.19-151.72-182.22-102.53-37.8-176.74,129.77-336.98,136.77-177.72,7.76-253.32-211.35-382.11-173.39-91.93,27.1-86.98,144.61-171.3,159.39-122.77,21.52-235.51-228.38-314.86-198.16-16.87,6.43-20.4,20.82-38.58,58.61-37.13,77.19-129.36,239.47-179.3,231.09-52.46-8.81-61.81-203.84-65.2-275.09-.67-14.12-5.78-121.29,3.11-152,58.56-202.25,1563.44,15.02,2035.82,86.77Z"/>
  <rect x=".33" y="-24.03" width="1968" height="525"/>
</svg>