<?xml version="1.0" encoding="UTF-8" standalone="no"?>
<!DOCTYPE svg PUBLIC "-//W3C//DTD SVG 1.1//EN" "http://www.w3.org/Graphics/SVG/1.1/DTD/svg11.dtd">
<svg width="100%" height="100%" viewBox="0 0 1969 800" version="1.1" xmlns="http://www.w3.org/2000/svg" xmlns:xlink="http://www.w3.org/1999/xlink" xml:space="preserve" xmlns:serif="http://www.serif.com/" style="fill-rule:evenodd;clip-rule:evenodd;stroke-linejoin:round;stroke-miterlimit:2;">
    <g transform="matrix(1,0,0,1,0.25,-114.680653)">
        <path d="M1968.33,496.74C1863.08,527.44 1748.98,575.53 1740.4,647.97C1732.13,717.73 1826.86,766.75 1806.71,807.97C1786.21,849.9 1658.89,859.06 1569.46,804.97C1469.45,744.48 1491.06,649.78 1417.74,622.75C1315.21,584.95 1241,752.52 1080.76,759.52C903.04,767.28 827.44,548.17 698.65,586.13C606.72,613.23 611.67,730.74 527.35,745.52C404.58,767.04 291.84,517.14 212.49,547.36C195.62,553.79 192.09,568.18 173.91,605.97C136.78,683.16 44.55,845.44 -5.39,837.06C-57.85,828.25 -67.2,633.22 -70.59,561.97C-71.26,547.85 -76.37,440.68 -67.48,409.97C-8.92,207.72 1495.96,424.99 1968.34,496.74L1968.33,496.74Z" style="fill-rule:nonzero;"/>
    </g>
    <g transform="matrix(1,0,0,0.727648,0.26,17.485372)">
        <rect x="0.33" y="-24.03" width="1968" height="525"/>
    </g>
</svg>
