<?xml version="1.0" encoding="UTF-8"?>
<svg id="Vrstva_1" xmlns="http://www.w3.org/2000/svg" version="1.1" viewBox="0 0 166.67 166.67">
  <!-- Generator: Adobe Illustrator 29.5.0, SVG Export Plug-In . SVG Version: 2.1.0 Build 137)  -->
  <path d="M83.33,166.67C37.31,166.67,0,129.36,0,83.33S37.31,0,83.33,0s83.33,37.31,83.33,83.33-37.31,83.33-83.33,83.33ZM54.17,100v16.67h20.83v16.67h16.67v-16.67h8.33c11.51,0,20.83-9.33,20.83-20.83s-9.33-20.83-20.83-20.83h-33.33c-2.3,0-4.17-1.86-4.17-4.17s1.87-4.17,4.17-4.17h45.83v-16.67h-20.83v-16.67h-16.67v16.67h-8.33c-11.51,0-20.83,9.33-20.83,20.83s9.33,20.83,20.83,20.83h33.33c2.3,0,4.17,1.87,4.17,4.17s-1.87,4.17-4.17,4.17h-45.83Z"/>
</svg>