<?xml version="1.0" encoding="UTF-8" standalone="no"?><!DOCTYPE svg PUBLIC "-//W3C//DTD SVG 1.1//EN" "http://www.w3.org/Graphics/SVG/1.1/DTD/svg11.dtd"><svg width="100%" height="100%" viewBox="0 0 200 200" version="1.1" xmlns="http://www.w3.org/2000/svg" xmlns:xlink="http://www.w3.org/1999/xlink" xml:space="preserve" xmlns:serif="http://www.serif.com/" style="fill-rule:evenodd;clip-rule:evenodd;stroke-linejoin:round;stroke-miterlimit:2;"><rect x="0" y="0" width="200" height="200" style="fill:none;fill-rule:nonzero;"/><path d="M79.888,129.042c-0,-0 -18.043,-18.043 -25.459,-25.459c-1.726,-1.726 -4.524,-1.726 -6.25,0c-0.873,0.873 -1.83,1.83 -2.731,2.731c-2.028,2.028 -2.028,5.316 0,7.344c7.336,7.336 23.719,23.719 30.924,30.924c1.942,1.942 5.09,1.942 7.031,0c13.278,-13.278 60.328,-60.328 74.247,-74.247c2.157,-2.157 2.157,-5.655 -0,-7.812c-0.751,-0.751 -1.531,-1.531 -2.262,-2.262c-0.891,-0.891 -2.099,-1.392 -3.359,-1.392c-1.26,-0 -2.468,0.501 -3.359,1.392c-14.226,14.226 -68.781,68.781 -68.781,68.781Z" style="fill-rule:nonzero;"/><path d="M197.938,57.031l0,85.937c0,30.338 -24.631,54.969 -54.969,54.969l-85.937,0c-30.338,0 -54.969,-24.631 -54.969,-54.969l-0,-85.938c0,-30.338 24.631,-54.969 54.969,-54.969l85.938,-0c30.338,0 54.969,24.631 54.969,54.969Zm-12,0c0,-23.715 -19.254,-42.969 -42.969,-42.969l-85.937,-0c-23.715,0 -42.969,19.254 -42.969,42.969l-0,85.937c0,23.715 19.254,42.969 42.969,42.969l85.937,0c23.715,0 42.969,-19.254 42.969,-42.969l0,-85.937Z"/></svg>