<?xml version="1.0" encoding="UTF-8"?>
<svg id="Layer_1" data-name="Layer 1" xmlns="http://www.w3.org/2000/svg" viewBox="0 0 200 200">
  <path d="M113.92,170.25h-31.93v-16.38c.01-3.06-1.23-5.99-3.44-8.11-2.75-2.71-6.75-4.23-10.95-4.17-3.74.04-7.35,1.39-10.19,3.82-1.86,1.65-4.08,4.5-4.08,8.75v16.09h-31.66c-11-.01-19.91-8.93-19.93-19.93v-31.66h16.38c3.28,0,6.47-1.4,8.99-3.94,2.83-2.85,4.4-6.71,4.37-10.72-.11-7.59-6.36-14-13.65-14H1.73v-32.01c-.02-5.27,2.12-10.32,5.92-13.97,3.76-3.62,8.78-5.64,14-5.61h22.66v-5.19c0-12.97,10.51-23.48,23.48-23.48.14,0,.27,0,.41,0,12.71.22,23.06,10.88,23.06,23.76v4.9h22.66c10.74-.12,19.54,8.5,19.65,19.24,0,.14,0,.28,0,.42v22.66h4.89c13.1,0,23.77,10.39,23.77,23.16s-10.53,23.79-23.47,23.79h-5.19v22.66c0,10.99-8.82,19.93-19.65,19.93h0Z"/>
  <path d="M176.81,129.24l12.69,12.69-27.55,27.55-11.31,1.25c-1.51.17-2.79-1.11-2.63-2.63l1.26-11.32s27.54-27.54,27.54-27.54ZM197.34,127.35l-5.96-5.96c-1.86-1.86-4.87-1.86-6.73,0l-5.6,5.6,12.69,12.69,5.6-5.6c1.86-1.86,1.86-4.87,0-6.73Z"/>
</svg>