<?xml version="1.0" encoding="UTF-8"?>
<svg xmlns="http://www.w3.org/2000/svg" version="1.1" xmlns:xlink="http://www.w3.org/1999/xlink" viewBox="0 0 82.44 90.22">
  <!-- Generator: Adobe Illustrator 29.5.0, SVG Export Plug-In . SVG Version: 2.1.0 Build 137)  -->
  <defs>
    <style>
      .st0 {
        fill: #fff;
      }

      .st1 {
        fill: url(#Nové_políčko_přechodu_11);
      }

      .st2 {
        fill: url(#Nové_políčko_přechodu_1);
      }

      .st3 {
        fill: url(#Nepojmenovaný_přechod_110);
      }
    </style>
    <linearGradient id="Nové_políčko_přechodu_1" data-name="Nové políčko přechodu 1" x1="42.33" y1="39.68" x2="46.79" y2="39.68" gradientUnits="userSpaceOnUse">
      <stop offset="0" stop-color="#379eae"/>
      <stop offset="1" stop-color="#39a4b5"/>
    </linearGradient>
    <linearGradient id="Nepojmenovaný_přechod_110" data-name="Nepojmenovaný přechod 110" x1="7.05" y1="5.11" x2="75.4" y2="73.46" gradientUnits="userSpaceOnUse">
      <stop offset=".24" stop-color="#0070bb"/>
      <stop offset="1" stop-color="#91f5ad"/>
    </linearGradient>
    <linearGradient id="Nové_políčko_přechodu_11" data-name="Nové políčko přechodu 1" x1="34.35" y1="39.67" x2="38.81" y2="39.67" xlink:href="#Nové_políčko_přechodu_1"/>
  </defs>
  <g id="Vrstva_3">
    <rect class="st0" x="11.25" y="12.7" width="57.93" height="57.93"/>
  </g>
  <g id="Vrstva_2">
    <g id="Popisky">
      <g>
        <path class="st2" d="M44.56,45.04c1.23,0,2.23-1,2.23-2.23v-6.26c0-1.23-1-2.23-2.23-2.23s-2.23,1-2.23,2.23v6.26c0,1.23,1,2.23,2.23,2.23Z"/>
        <path class="st3" d="M0,12.16v54.26l41.22,23.79,41.22-23.79V12.16L41.22,0,0,12.16ZM32.58,16.66c.36.23.67.56.86.99l.75,1.68c.5,1.12,0,2.44-1.13,2.94-.29.13-.6.19-.91.19-.85,0-1.67-.49-2.04-1.32l-.75-1.68c-.5-1.12,0-2.44,1.13-2.94.7-.32,1.48-.24,2.09.14ZM16.62,31.15c.33-.86,1.14-1.4,2.01-1.43.29-.01.58.04.87.14l1.72.66c1.15.44,1.73,1.73,1.29,2.88-.34.89-1.18,1.43-2.08,1.43-.27,0-.54-.05-.8-.15l-1.72-.66c-1.01-.38-1.57-1.42-1.4-2.44.02-.15.06-.29.12-.44h-.01ZM20.11,52.43c-.29.13-.6.19-.91.19-.21,0-.42-.03-.63-.09-.61-.18-1.13-.61-1.41-1.23-.5-1.12,0-2.44,1.13-2.94l1.68-.75c.28-.13.57-.19.86-.2.07,0,.13,0,.2.02.08,0,.15,0,.23.02.7.12,1.34.59,1.65,1.29.5,1.12,0,2.44-1.13,2.94l-1.68.75h0ZM41.22,69.07v-.03c-.22.02-.43.07-.66.07-3.28,0-5.93-2.66-5.93-5.93h11.86c0,3.05-2.31,5.56-5.27,5.89ZM50.24,61.28h-19.36v-6.64h19.36v6.64ZM65.82,50c-.34.89-1.18,1.43-2.08,1.43-.27,0-.54-.05-.8-.15l-1.72-.66c-1.15-.44-1.73-1.73-1.28-2.88.44-1.15,1.74-1.72,2.88-1.28l1.72.66c1.15.44,1.73,1.73,1.28,2.88ZM60.65,29.47l1.68-.75c1.12-.5,2.44,0,2.94,1.13.5,1.12,0,2.44-1.13,2.94l-1.68.75c-.29.13-.6.19-.91.19-.85,0-1.67-.49-2.04-1.32-.5-1.12,0-2.44,1.13-2.94h0ZM47.11,18.98l.66-1.72c.44-1.15,1.74-1.72,2.88-1.28,1.15.44,1.73,1.73,1.28,2.88l-.66,1.72c-.34.89-1.18,1.43-2.08,1.43-.27,0-.54-.05-.8-.15-1.15-.44-1.73-1.73-1.28-2.88ZM52.2,28.5c3.11,3.11,4.82,7.24,4.82,11.64s-1.71,8.53-4.82,11.64l-.65.65h-21.97l-.65-.65c-6.42-6.42-6.42-16.86,0-23.28.4-.4.83-.78,1.26-1.13.07-.06.14-.1.21-.16.38-.29.77-.58,1.18-.83.03-.02.05-.03.08-.05,2.85-1.77,6.22-2.57,9.56-2.44v-.03c4.04.15,8.03,1.69,10.98,4.64Z"/>
        <path class="st1" d="M37.76,34.66c-.34-.22-.75-.35-1.18-.35-1.23,0-2.23,1-2.23,2.23v6.26c0,1.23,1,2.23,2.23,2.23h0c1.23,0,2.23-1,2.23-2.23v-6.26c0-.8-.42-1.49-1.05-1.88Z"/>
      </g>
    </g>
  </g>
</svg>