<?xml version="1.0" encoding="UTF-8" standalone="no"?>
<svg
   class="w-6 h-6 text-gray-800 dark:text-white"
   aria-hidden="true"
   width="24"
   height="24"
   fill="currentColor"
   viewBox="0 0 24 24"
   version="1.1"
   id="svg1"
   sodipodi:docname="sun.svg"
   inkscape:version="1.3.2 (091e20e, 2023-11-25, custom)"
   xmlns:inkscape="http://www.inkscape.org/namespaces/inkscape"
   xmlns:sodipodi="http://sodipodi.sourceforge.net/DTD/sodipodi-0.dtd"
   xmlns="http://www.w3.org/2000/svg"
   xmlns:svg="http://www.w3.org/2000/svg">
  <defs
     id="defs1" />
  <sodipodi:namedview
     id="namedview1"
     pagecolor="#505050"
     bordercolor="#ffffff"
     borderopacity="1"
     inkscape:showpageshadow="0"
     inkscape:pageopacity="0"
     inkscape:pagecheckerboard="1"
     inkscape:deskcolor="#505050"
     inkscape:zoom="23.6875"
     inkscape:cx="1.5197889"
     inkscape:cy="9.3931398"
     inkscape:window-width="2560"
     inkscape:window-height="1351"
     inkscape:window-x="2391"
     inkscape:window-y="-9"
     inkscape:window-maximized="1"
     inkscape:current-layer="svg1" />
  <path
     fill-rule="evenodd"
     d="m 13.185747,1.3282837 a 1.1857463,1.1857463 0 1 0 -2.371492,0 v 2.3714925 a 1.1857463,1.1857463 0 1 0 2.371492,0 z M 5.2922339,3.6155882 A 1.1857463,1.1857463 0 0 0 3.6167746,5.2922334 L 5.2934197,6.9688786 A 1.1857463,1.1857463 0 0 0 6.9700649,5.2922334 Z M 20.384412,5.2922334 A 1.1857463,1.1857463 0 0 0 18.707767,3.6155882 l -1.676645,1.6766452 a 1.1857463,1.1857463 0 0 0 1.676645,1.6766452 z m -8.384411,0.7790352 a 5.9287312,5.9287312 0 1 0 0,11.8574614 5.9287312,5.9287312 0 0 0 0,-11.8574614 z M 1.3282843,10.814253 a 1.1857463,1.1857463 0 1 0 0,2.371492 h 2.3714924 a 1.1857463,1.1857463 0 1 0 0,-2.371492 z m 18.9719397,0 a 1.1857463,1.1857463 0 1 0 0,2.371492 h 2.371492 a 1.1857463,1.1857463 0 1 0 0,-2.371492 z M 6.9688791,18.707766 A 1.1857463,1.1857463 0 1 0 5.2922339,17.031121 l -1.6766451,1.676645 a 1.1857463,1.1857463 0 1 0 1.6766451,1.676645 z M 18.707767,17.031121 a 1.1857463,1.1857463 0 0 0 -1.676645,1.676645 l 1.676645,1.676645 a 1.1857463,1.1857463 0 0 0 1.676645,-1.676645 z m -5.52202,3.269101 a 1.1857463,1.1857463 0 1 0 -2.371492,0 v 2.371494 a 1.1857463,1.1857463 0 1 0 2.371492,0 z"
     clip-rule="evenodd"
     id="path1"
     style="stroke-width:1.18575" />
</svg>
