<?xml version="1.0" encoding="UTF-8"?>
<svg id="Vrstva_1" xmlns="http://www.w3.org/2000/svg" version="1.1" viewBox="0 0 170 170">
  <!-- Generator: Adobe Illustrator 29.5.0, SVG Export Plug-In . SVG Version: 2.1.0 Build 137)  -->
  <path d="M151.67,55.83h-46.77l9.36-28.06c1.68-5.07.83-10.68-2.29-15.02s-8.19-6.92-13.53-6.92h-13.43c-2.47,0-4.82,1.1-6.41,3l-39.17,47h-21.09c-9.19,0-16.67,7.48-16.67,16.67v75c0,9.19,7.48,16.67,16.67,16.67h110.89c6.94-.02,13.15-4.33,15.61-10.82l22.97-61.26c.35-.94.53-1.93.53-2.92v-16.67c0-9.19-7.47-16.67-16.67-16.67ZM18.33,72.5h16.67v75h-16.67v-75ZM151.67,87.66l-22.44,59.84H51.67v-80.32l37.23-44.68h9.55l-13.02,39.03c-1.47,4.35.87,9.07,5.22,10.54.86.29,1.77.44,2.68.44h58.33v15.16Z"/>
</svg>