<?xml version="1.0" encoding="UTF-8" standalone="no"?>
<svg
   stroke="currentColor"
   fill="currentColor"
   stroke-width="0"
   version="1.2"
   viewBox="0 0 24 24"
   height="200px"
   width="200px"
   id="svg1"
   sodipodi:docname="warn.svg"
   inkscape:version="1.3.2 (091e20e, 2023-11-25, custom)"
   xmlns:inkscape="http://www.inkscape.org/namespaces/inkscape"
   xmlns:sodipodi="http://sodipodi.sourceforge.net/DTD/sodipodi-0.dtd"
   xmlns="http://www.w3.org/2000/svg"
   xmlns:svg="http://www.w3.org/2000/svg">
  <defs
     id="defs1" />
  <sodipodi:namedview
     id="namedview1"
     pagecolor="#505050"
     bordercolor="#ffffff"
     borderopacity="1"
     inkscape:showpageshadow="0"
     inkscape:pageopacity="0"
     inkscape:pagecheckerboard="1"
     inkscape:deskcolor="#505050"
     inkscape:zoom="2.8425"
     inkscape:cx="52.594547"
     inkscape:cy="56.46438"
     inkscape:window-width="2560"
     inkscape:window-height="1351"
     inkscape:window-x="2391"
     inkscape:window-y="-9"
     inkscape:window-maximized="1"
     inkscape:current-layer="svg1" />
  <path
     d="M 22.959892,15.755476 15.8947,3.9793566 C 14.967334,2.4341444 13.548798,1.5498002 12,1.5498002 c -1.548797,0 -2.9673332,0.8843442 -3.8946997,2.4271663 L 1.0401074,15.755476 C 0.10079054,17.319808 -0.00198467,18.988112 0.75926841,20.332554 1.5193264,21.678191 3.0035905,22.4502 4.8296418,22.4502 H 19.170359 c 1.826051,0 3.310315,-0.772009 4.070373,-2.116451 0.761253,-1.344443 0.658478,-3.012746 -0.28084,-4.578273 z M 12,18.326048 c -1.020581,0 -1.852343,-0.830566 -1.852343,-1.851147 0,-1.021776 0.830568,-1.853537 1.852343,-1.853537 1.021776,0 1.852343,0.831761 1.852343,1.853537 0,1.020581 -0.831762,1.851147 -1.852343,1.851147 z m 1.951533,-8.872123 c -0.01315,0.037047 -1.674279,4.144467 -1.674279,4.144467 -0.04541,0.112337 -0.155357,0.186429 -0.276059,0.186429 -0.120701,0 -0.230646,-0.0741 -0.276058,-0.186429 L 10.062808,9.489777 C 9.9552532,9.211328 9.9086455,8.9603654 9.9086455,8.7070128 9.9086455,7.5537802 10.846768,6.6156584 12,6.6156584 c 1.153233,0 2.091355,0.9381218 2.091355,2.0913544 0,0.2533526 -0.0466,0.5043152 -0.139822,0.7469122 z"
     id="path1"
     style="stroke-width:0" />
</svg>
