<?xml version="1.0" encoding="UTF-8" standalone="no"?>
<svg
   id="Vrstva_2"
   viewBox="0 0 47.74 39.11"
   version="1.1"
   sodipodi:docname="zarivka_sad_bile.svg"
   xml:space="preserve"
   inkscape:version="1.3.2 (091e20e, 2023-11-25, custom)"
   xmlns:inkscape="http://www.inkscape.org/namespaces/inkscape"
   xmlns:sodipodi="http://sodipodi.sourceforge.net/DTD/sodipodi-0.dtd"
   xmlns="http://www.w3.org/2000/svg"
   xmlns:svg="http://www.w3.org/2000/svg"><sodipodi:namedview
     id="namedview9"
     pagecolor="#505050"
     bordercolor="#ffffff"
     borderopacity="1"
     inkscape:showpageshadow="0"
     inkscape:pageopacity="0"
     inkscape:pagecheckerboard="1"
     inkscape:deskcolor="#505050"
     inkscape:zoom="27.934716"
     inkscape:cx="33.649886"
     inkscape:cy="11.365786"
     inkscape:window-width="2560"
     inkscape:window-height="1351"
     inkscape:window-x="2391"
     inkscape:window-y="-9"
     inkscape:window-maximized="1"
     inkscape:current-layer="Vrstva_2" /><defs
     id="defs1"><inkscape:path-effect
       effect="fillet_chamfer"
       id="path-effect11"
       is_visible="true"
       lpeversion="1"
       nodesatellites_param="F,0,0,1,0,0,0,1 @ F,0,0,1,0,0,0,1 @ F,0,0,1,0,0,0,1 @ F,0,0,1,0,0,0,1"
       radius="0"
       unit="px"
       method="auto"
       mode="F"
       chamfer_steps="1"
       flexible="false"
       use_knot_distance="true"
       apply_no_radius="true"
       apply_with_radius="true"
       only_selected="false"
       hide_knots="false" /><style
       id="style1">
      .cls-1 {
        fill: #fff;
      }
    </style><style
       id="style1-3">
      .cls-1 {
        fill: #fff;
      }
    </style></defs><g
     id="Elementy"><g
       id="g9"><path
         class="cls-1"
         d="M2.52,23.63l-1.21.54c-.81.36-1.17,1.31-.81,2.12.27.6.85.95,1.47.95.22,0,.44-.04.65-.14l1.21-.54c.81-.36,1.17-1.31.81-2.12-.36-.81-1.31-1.18-2.12-.81Z"
         id="path1" /><path
         class="cls-1"
         d="M1.03,13.86l1.24.47c.19.07.38.11.57.11.65,0,1.25-.39,1.5-1.03.32-.83-.1-1.76-.92-2.07l-1.24-.47c-.82-.32-1.76.1-2.07.92-.32.83.1,1.76.92,2.07Z"
         id="path2" /><path
         class="cls-1"
         d="M9.81,4.58c.27.6.85.95,1.47.95.22,0,.44-.04.65-.14.81-.36,1.17-1.31.82-2.12l-.54-1.21c-.36-.81-1.31-1.17-2.12-.82-.81.36-1.17,1.31-.82,2.12l.54,1.21Z"
         id="path3" /><path
         class="cls-1"
         d="M22.98,5.1c.19.07.38.11.57.11.65,0,1.25-.39,1.5-1.03l.47-1.24c.32-.83-.1-1.76-.92-2.07-.82-.31-1.76.1-2.07.92l-.47,1.24c-.32.83.1,1.76.92,2.07Z"
         id="path4" /><path
         class="cls-1"
         d="M32.46,13.64c.22,0,.44-.04.65-.14l1.21-.54c.81-.36,1.17-1.31.81-2.12-.36-.81-1.31-1.18-2.12-.81l-1.21.54c-.81.36-1.17,1.31-.81,2.12.27.6.85.95,1.47.95Z"
         id="path5" /><rect
         class="cls-1"
         x="10.37"
         y="28.69"
         width="13.93"
         height="4.78"
         id="rect5" /><path
         class="cls-1"
         d="M17.34,39.11c2.36,0,4.27-1.91,4.27-4.27h-8.54c0,2.36,1.91,4.27,4.27,4.27Z"
         id="path6" /><path
         id="path10"
         style="fill:#ffffff;stroke-width:0;stroke-linecap:round;stroke-linejoin:round;stroke-miterlimit:20;paint-order:stroke fill markers;fill-opacity:1"
         d="M 17.34375 6.5195312 C 14.272506 6.5195312 11.200933 7.6408638 8.9609375 9.8808594 C 6.7209419 12.120855 5.4902344 15.089772 5.4902344 18.259766 C 5.4902344 21.429758 6.7209419 24.400629 8.9609375 26.640625 L 9.4296875 27.109375 L 25.25 27.109375 L 25.720703 26.640625 C 26.540701 25.820627 27.149688 24.899686 27.679688 23.929688 C 27.819686 23.999686 27.970625 24.079375 28.140625 24.109375 C 28.210625 24.119375 28.689688 24.199219 29.429688 24.199219 C 31.559682 24.199219 35.869303 23.559678 39.029297 18.929688 C 39.529295 18.199688 39.339373 17.199217 38.609375 16.699219 C 37.879377 16.199219 36.880859 16.389141 36.380859 17.119141 C 33.550865 21.269131 29.599842 21.050936 28.839844 20.960938 C 29.739842 17.100944 28.720697 12.880853 25.720703 9.8808594 C 23.485707 7.6408638 20.414994 6.5195313 17.34375 6.5195312 z M 15.439453 11.390625 C 16.329451 11.390625 17.050781 12.110002 17.050781 13 L 17.050781 15.25 C 17.050781 16.139998 16.329451 16.859375 15.439453 16.859375 C 14.549455 16.859375 13.830078 16.139998 13.830078 15.25 L 13.830078 13 C 13.830078 12.110002 14.549455 11.390625 15.439453 11.390625 z M 21.179688 11.400391 C 22.069686 11.400391 22.789062 12.119768 22.789062 13.009766 L 22.789062 15.259766 C 22.789062 16.149764 22.069686 16.869141 21.179688 16.869141 C 20.289688 16.869141 19.570313 16.149764 19.570312 15.259766 L 19.570312 13.009766 C 19.570312 12.119768 20.289688 11.400391 21.179688 11.400391 z M 16.548828 19.552734 C 16.686255 19.555242 16.825688 19.563311 16.966797 19.578125 C 19.224547 19.815145 21.054687 21.571705 21.054688 23.5 C 21.054688 25.428296 19.347444 22.278732 17.171875 21.611328 C 14.914124 20.918713 12.878905 24.568919 12.878906 22.640625 C 12.878908 20.832848 14.487421 19.515125 16.548828 19.552734 z " /></g></g><path
     class="cls-1"
     d="m 37.958517,13.63303 v 0 c 0.54951,0.558223 1.503177,0.558223 2.052689,0 l 2.602201,-2.593035 2.602202,2.593035 c 0.549512,0.558223 1.503179,0.558223 2.052691,0 v 0 c 0.549511,-0.558222 0.549511,-1.52701 0,-2.085233 L 44.71573,8.9547614 47.2683,6.3617244 c 0.549511,-0.558223 0.549511,-1.5270093 0,-2.0852322 v 0 c -0.549512,-0.558223 -1.503179,-0.558223 -2.052691,0 L 42.613407,6.8695284 40.011206,4.2764922 c -0.549512,-0.558223 -1.499634,-0.558223 -2.052689,0 v 0 c -0.549512,0.5618244 -0.549512,1.5270092 0,2.0852322 l 2.552567,2.593037 -2.552567,2.5930356 c -0.549512,0.608643 -0.549512,1.527011 0,2.085233 z"
     id="path1-6"
     style="stroke-width:0.357322" /></svg>
