<?xml version="1.0" encoding="UTF-8"?>
<svg id="Vrstva_2" data-name="Vrstva 2" xmlns="http://www.w3.org/2000/svg" viewBox="0 0 1920 1080">
  <defs>
    <style>
      .cls-1 {
        fill: #1d1d1b;
      }
    </style>
  </defs>
  <path class="cls-1" d="M-97,609c347.6,260.08,601.38,287.49,775,257,235.37-41.34,327.11-189.73,565-158,220.73,29.44,335.77,183.07,462,119,67.58-34.3,57.01-89.71,126-191,172.92-253.89,478.57-257.04,474-341-3.39-62.37-174.2-98.46-365-138-373.15-77.33-647.96-134.28-850,12-69.6,50.39-69.35,80.58-162,138-50.23,31.13-249.95,154.91-404,86-104.77-46.87-89.76-138.72-199-222C212.56,85.28,68.26,84.72-37,98"/>
</svg>