<?xml version="1.0" encoding="UTF-8"?>
<svg id="Vrstva_1" data-name="Vrstva 1" xmlns="http://www.w3.org/2000/svg" viewBox="0 0 1920 1080">
  <defs>
    <style>
      .cls-1 {
        fill: #1d1d1b;
      }
    </style>
  </defs>
  <path class="cls-1" d="M-300.16,653.34c19.35,39.55,60.75,68.38,113.32,78.94,52.57,10.56,115.76,2.73,172.99-21.42,111.67-47.14,197.88-151.37,313.74-173.25,7.01-1.32,14-2.31,20.96-3.12,32.13-3.75,55.46-6.56,59.26-6.94,29.63-2.94,125.35-28.87,177.9-86.2,24.68-26.93,10.05-28.29,54.14-116.03,24.17-48.11,36.74-72.6,60.06-93.59,41.28-37.16,92.24-52.77,121.9-61.86,87.23-26.72,119.69-7.49,155.29-30.86,25.66-16.84,49.02-53.23,40.12-138.67L-42.13-53.62l-258.03,706.96Z"/>
  <path class="cls-1" d="M-302.87,654.93c27.64,55.68,90.53,81.45,149.71,84.7,70.01,3.85,137.51-19.31,196.88-54.94,55.24-33.15,104.85-74.92,160.93-106.73,26.96-15.29,55.49-28.06,85.76-35.14,18.27-4.27,36.98-5.94,55.58-8.14,10.94-1.29,21.86-2.65,32.81-3.85,17.31-1.9,34.28-6.28,50.87-11.51,25.78-8.13,50.97-18.72,74.42-32.19s44.52-28.91,61.04-49.18c7.2-8.83,11.49-18.51,15.12-29.22,6.74-19.91,14.37-39.34,23.26-58.41,7.87-16.88,16.31-33.5,24.87-50.03,6.65-12.84,13.5-25.66,21.54-37.7,32.53-48.7,89.12-72.55,143.12-89.1,29.48-9.04,59.38-14.58,90.12-16.65,18.56-1.25,37.98-1.24,55.41-8.53,38.92-16.28,53.11-58.49,55.55-97.62,1.05-16.79.24-33.63-1.46-50.34-.18-1.76-1.3-3.05-3.14-3.14-9.21-.48-18.43-.96-27.64-1.45l-75.22-3.93c-36.94-1.93-73.88-3.86-110.82-5.8-45.21-2.36-90.42-4.73-135.62-7.09-49.52-2.59-99.04-5.18-148.56-7.77s-99.63-5.21-149.45-7.82c-46.46-2.43-92.91-4.86-139.37-7.29-39.39-2.06-78.79-4.12-118.18-6.18-28.32-1.48-56.63-2.96-84.95-4.44-13.36-.7-26.74-1.63-40.11-2.1-.58-.02-1.16-.06-1.74-.09-1.46-.08-2.57,1.05-3.03,2.31-2.29,6.28-4.58,12.55-6.87,18.83-6.27,17.18-12.54,34.36-18.81,51.54-9.24,25.3-18.47,50.61-27.71,75.91-11.32,31.02-22.64,62.03-33.96,93.05-12.35,33.82-24.69,67.65-37.04,101.47-12.46,34.14-24.93,68.29-37.39,102.43-11.67,31.99-23.35,63.97-35.02,95.96-9.82,26.91-19.65,53.82-29.47,80.74-7.1,19.44-14.19,38.88-21.29,58.33-3.34,9.14-7.09,18.23-10.04,27.51-.13.4-.29.8-.44,1.19-1.39,3.8,4.68,5.45,6.06,1.67,2.29-6.28,4.58-12.55,6.87-18.83,6.27-17.18,12.54-34.36,18.81-51.54,9.24-25.3,18.47-50.61,27.71-75.91,11.32-31.02,22.64-62.03,33.96-93.05,12.35-33.82,24.69-67.65,37.04-101.47,12.46-34.14,24.93-68.29,37.39-102.43,11.67-31.99,23.35-63.97,35.02-95.96,9.82-26.91,19.65-53.82,29.47-80.74,7.1-19.44,14.19-38.88,21.29-58.33l6.59-18.06c1.12-3.06,2.73-6.27,3.45-9.45.09-.4.29-.8.44-1.19l-3.03,2.31c9.21.48,18.43.96,27.64,1.45,25.07,1.31,50.14,2.62,75.22,3.93,36.94,1.93,73.88,3.86,110.82,5.8,45.21,2.36,90.42,4.73,135.62,7.09,49.52,2.59,99.04,5.18,148.56,7.77,49.82,2.61,99.63,5.21,149.45,7.82,46.46,2.43,92.91,4.86,139.37,7.29,39.39,2.06,78.79,4.12,118.18,6.18l84.95,4.44,26.33,1.38c4.54.24,9.24.86,13.78.72.57-.02,1.16.06,1.74.09l-3.14-3.14c4.48,44,4.97,102.69-34,132.72-14.11,10.87-30.66,14.66-48.08,16.08-24.5,2-48.81,3.17-73,8.01-28.02,5.61-55.99,14.27-82.52,24.94-29.39,11.83-57.68,27.59-80.92,49.36-18.81,17.62-31.59,40.14-43.41,62.77-14.69,28.13-29.12,56.58-40.72,86.15-5,12.75-8.42,26.29-14.06,38.76-6.59,14.57-19.08,26.28-31.04,36.43-21.85,18.54-47.35,32.71-73.61,43.98-21.49,9.23-43.93,16.71-66.79,21.73-17.15,3.76-34.83,5.06-52.24,7.11-17.9,2.11-35.95,3.69-53.58,7.53-14.87,3.24-29.41,7.87-43.53,13.53-57.88,23.21-107.57,62.04-158.44,97.24-26.14,18.09-52.83,35.57-81.22,49.98-31.75,16.11-65.64,27.63-100.83,33.28-62.57,10.05-135.16,1.77-181.99-45.07-9.7-9.71-17.74-20.84-23.84-33.13-1.8-3.62-7.22-.44-5.43,3.17Z"/>
</svg>